<svg width="25" height="25" viewBox="0 0 25 25" fill="none" xmlns="http://www.w3.org/2000/svg">
<rect width="25" height="25" fill="#181024"/>
<path d="M0 13.0264H2.5C2.66667 11.7018 2.5 9.54945 5.5 9.05269C8.5 8.55593 8.66667 11.7018 9 13.0264H15.5C15.5 14.3509 16.1 17 18.5 17C21.5 17 22.4333 14.682 22.6 13.523H25" stroke="white" stroke-width="0.5"/>
<path d="M12.5297 25V22.5C11.0395 22.3333 8.61813 22.5 8.05928 19.5C7.50042 16.5 11.0395 16.3333 12.5297 16V9.5C14.0198 9.5 17 8.9 17 6.5C17 3.5 14.3923 2.56667 13.0884 2.4V0" stroke="white" stroke-width="0.5"/>
</svg>
